# xmcd
# 
# Track frame offsets:
#     150
#     23687
#     45530
#     65165
#     85430
#     107315
#     127635
#     150232
#     170250
#     191210
#     211030
#     232120
#     251337
#     270887
#     295255
#     316737
# 
# Disc length: 4493
# 
# Revision: 0
# Processed by: cddbd v1.5.2PL0 Copyright (c) Steve Scherf et al.
# Submitted via: fre:ac v1.0.17
# 
DISCID=c6118b10
DTITLE=島津亜矢 - 島津亜矢 2005年全曲集
DYEAR=2004
DGENRE=Blues
TTITLE0=帰らんちゃよか
TTITLE1=北海峡
TTITLE2=海で一生終わりたかった
TTITLE3=夜桜挽花
TTITLE4=道南夫婦船
TTITLE5=波
TTITLE6=おりょう
TTITLE7=おもいで宝箱
TTITLE8=海鳴りの詩
TTITLE9=都会の雀
TTITLE10=娘に…
TTITLE11=愛染かつらをもう一度
TTITLE12=憂き世春秋
TTITLE13=感謝状～母へのメッセージ～
TTITLE14=美保関潮歌
TTITLE15=演歌桜
EXTD=
EXTT0=
EXTT1=
EXTT2=
EXTT3=
EXTT4=
EXTT5=
EXTT6=
EXTT7=
EXTT8=
EXTT9=
EXTT10=
EXTT11=
EXTT12=
EXTT13=
EXTT14=
EXTT15=
PLAYORDER=
